# xmcd CD database file
#
# Track frame offsets:
#	150
#	12520
#	21967
#	39690
#	54295
#	69359
#	84745
#	98675
#	112946
#	129803
#	143806
#
# Disc length: 2148 seconds
#
# Revision: 0
# Processed by: cddbd v1.5.2PL0 Copyright (c) Steve Scherf et al.
# Submitted via: CDex 1.51
#
DISCID=8608620b
DTITLE=Brent Howard and Southern Cherry - Now...Where Was I?
DYEAR=2000
DGENRE=Country
TTITLE0=At the Rodeo
TTITLE1=Can I Keep 'er?
TTITLE2=Change
TTITLE3=The Fishin' Song
TTITLE4=Hey Shayla
TTITLE5=Good World
TTITLE6=I Only Asked You to Dance
TTITLE7=Mississippi Way
TTITLE8=Don't Start Stoppin' Now
TTITLE9=Ain't Dun Nuthin' Yet
TTITLE10=Listen to the Rain
EXTD=YEAR: 2000
EXTT0=
EXTT1=
EXTT2=
EXTT3=
EXTT4=
EXTT5=
EXTT6=
EXTT7=
EXTT8=
EXTT9=
EXTT10=
PLAYORDER=
